<svg id="Слой_1" data-name="Слой 1" xmlns="http://www.w3.org/2000/svg" xmlns:xlink="http://www.w3.org/1999/xlink" viewBox="0 0 705 224">
  <defs>
    <linearGradient id="Безымянный_градиент_91" data-name="Безымянный градиент 91" x1="-961.57" y1="-1227.92" x2="980.03" y2="3931.77" gradientTransform="matrix(-0.64, -0.3, 0.24, -0.52, 18.63, 2254.45)" gradientUnits="userSpaceOnUse">
      <stop offset="0" stop-color="#f29400"/>
      <stop offset="0.07" stop-color="#ee9303"/>
      <stop offset="0.15" stop-color="#e2900b"/>
      <stop offset="0.22" stop-color="#ce8b19"/>
      <stop offset="0.29" stop-color="#b2842d"/>
      <stop offset="0.36" stop-color="#8e7c47"/>
      <stop offset="0.43" stop-color="#627166"/>
      <stop offset="0.51" stop-color="#2e648a"/>
      <stop offset="0.54" stop-color="#115d9f"/>
      <stop offset="0.74" stop-color="#111533"/>
      <stop offset="1" stop-color="#491661"/>
    </linearGradient>
    <linearGradient id="Безымянный_градиент_7" data-name="Безымянный градиент 7" x1="131.57" y1="182.83" x2="131.57" y2="99.62" gradientUnits="userSpaceOnUse">
      <stop offset="0" stop-color="#67aad9"/>
      <stop offset="0.14" stop-color="#64a5d4"/>
      <stop offset="0.31" stop-color="#5b97c7"/>
      <stop offset="0.49" stop-color="#4b80b0"/>
      <stop offset="0.67" stop-color="#366091"/>
      <stop offset="0.86" stop-color="#1b3769"/>
      <stop offset="1" stop-color="#031346"/>
    </linearGradient>
  </defs>
  <title>acodemySITE</title>
  <path d="M-690,3032l2058,6q-2-1484-4-2968c-55.31,8.18-133.81,27.92-208,82-70.85,51.64-95,103.39-149,168,0,0-107.16,128.14-264,204C413.56,683.34-57.31,429.87-86,414c-92.11-50.95-159.79-105.17-278-112-125.49-7.25-231.12,44.18-300,88Q-677,1711-690,3032Z" style="fill: url(#Безымянный_градиент_91)"/>
  <g>
    <g>
      <path d="M79.2,108.16v27.12l52.23,39.32L184,135.28V107.85" style="fill: none;stroke-linecap: round;stroke-linejoin: round;stroke-width: 16.4609004909465px;stroke: url(#Безымянный_градиент_7)"/>
      <polyline points="166.16 37.93 215.57 77.45 166.16 116.98" style="fill: none;stroke: #67aad9;stroke-linecap: round;stroke-linejoin: round;stroke-width: 16.4609004909465px"/>
      <polyline points="96.99 37.93 47.58 77.45 96.99 116.98" style="fill: none;stroke: #67aad9;stroke-linecap: round;stroke-linejoin: round;stroke-width: 16.4609004909465px"/>
      <line x1="139.77" y1="29" x2="123.38" y2="125.91" style="fill: none;stroke: #67aad9;stroke-linecap: round;stroke-linejoin: round;stroke-width: 16.4609004909465px"/>
    </g>
    <g>
      <g>
        <path d="M244,101.13h12.29q0,26.93-.08,53.84H244c0-2.19,0-4.39,0-6.59a24.15,24.15,0,0,1-7.22,5.32,19,19,0,0,1-7.84,1.62q-9.5,0-16.41-7.94t-6.93-19.73q0-12.24,6.7-20.06t16.28-7.82a19.35,19.35,0,0,1,8.27,1.8A22.6,22.6,0,0,1,244,107ZM231.1,112a12,12,0,0,0-9.47,4.35,16.39,16.39,0,0,0-3.76,11.14,16.58,16.58,0,0,0,3.83,11.27,12.05,12.05,0,0,0,9.45,4.41,12.22,12.22,0,0,0,9.6-4.34q3.81-4.35,3.81-11.39,0-6.89-3.81-11.17A12.4,12.4,0,0,0,231.1,112Z" style="fill: gray"/>
        <path d="M506.59,102.47h12.29v6.07a21.18,21.18,0,0,1,7-5.59,19.2,19.2,0,0,1,8.4-1.84,14.78,14.78,0,0,1,8.29,2.43,17.13,17.13,0,0,1,5.94,7.09,20.54,20.54,0,0,1,7.19-7.09,18.45,18.45,0,0,1,9.3-2.43,16.24,16.24,0,0,1,9.19,2.62,14.87,14.87,0,0,1,5.7,6.85q1.74,4.22,1.74,13.74v31H569.26V128.5q0-9-2.08-12.17a6.92,6.92,0,0,0-6.21-3.18,9,9,0,0,0-5.65,1.94,11.52,11.52,0,0,0-3.71,5.37q-1.22,3.42-1.22,11V155.3H538V129.71c0-4.73-.33-8.15-1-10.27a9.31,9.31,0,0,0-2.92-4.73,7.23,7.23,0,0,0-4.69-1.56,8.82,8.82,0,0,0-5.57,2,11.74,11.74,0,0,0-3.75,5.51q-1.23,3.54-1.24,11.17v23.5H506.59Z" style="fill: gray"/>
        <path d="M588,101.55h12.56l12.72,33.15,14-33.15h12.59l-29.84,70H597.31l9.25-21.1Z" style="fill: gray"/>
      </g>
      <g>
        <path d="M293.83,143.55a14.24,14.24,0,0,1-10.77-4.27,15.22,15.22,0,0,1-4.1-11,15.75,15.75,0,0,1,4.26-11.37,14.74,14.74,0,0,1,11.15-4.44,16,16,0,0,1,6.6,1.26,17.69,17.69,0,0,1,5.71,4.52l10.23-6.07a25.54,25.54,0,0,0-9.5-8.9,27,27,0,0,0-13.1-3.14,27.9,27.9,0,0,0-14.25,3.69A26,26,0,0,0,270.13,114a28.94,28.94,0,0,0-3.55,14.12,28.22,28.22,0,0,0,7.32,19.34q7.31,8.24,20.23,8.25,14.36,0,22.23-11.05l-9.68-7.16Q302.08,143.56,293.83,143.55Z" style="fill: #67aad9"/>
        <path d="M373.53,114A26.07,26.07,0,0,0,364,103.88a24.46,24.46,0,0,0-13-3.74,23.63,23.63,0,0,0-17,7.18A27.74,27.74,0,0,0,325.6,128,27.93,27.93,0,0,0,333,147.61a23.63,23.63,0,0,0,18,8.08,24.44,24.44,0,0,0,13.1-3.67,25.83,25.83,0,0,0,9.38-10.17,29.42,29.42,0,0,0,3.45-14A28.9,28.9,0,0,0,373.53,114Zm-12.79,25a12.79,12.79,0,0,1-19.14.05q-3.77-4.26-3.76-11.17a15.94,15.94,0,0,1,3.81-11,12.87,12.87,0,0,1,19.16,0q3.76,4.25,3.77,11A16.08,16.08,0,0,1,360.74,139Z" style="fill: #67aad9"/>
        <path d="M423.14,93.88v13.44a22.68,22.68,0,0,0-7.15-5.39,19.46,19.46,0,0,0-8.27-1.79q-9.57,0-16.28,7.81T384.74,128a32.51,32.51,0,0,0,1.4,9.78l10.94-7.95c-.06-.64-.09-1.29-.09-2a16.33,16.33,0,0,1,3.77-11.13,12,12,0,0,1,9.46-4.35,12.38,12.38,0,0,1,7.58,2.38l17.63-12.82V85Zm.24,30.27a21.35,21.35,0,0,1,.3,3.66q0,7-3.81,11.39a12.23,12.23,0,0,1-9.6,4.35,11.8,11.8,0,0,1-8.64-3.58l-10.24,7.45.28.33q6.93,7.94,16.41,7.94a19,19,0,0,0,7.85-1.62,24.47,24.47,0,0,0,7.21-5.32v5.58h12.29v-39Z" style="fill: #67aad9"/>
        <path d="M497,129.23q0-13.12-7.25-21.11t-18.81-8a23.43,23.43,0,0,0-18.12,8q-7.23,8-7.23,20.08,0,11.82,7.25,19.65t18.77,7.84a27.14,27.14,0,0,0,12.83-2.84,25,25,0,0,0,9.27-8.77l-10.35-5.24a15.76,15.76,0,0,1-11.84,5.2A13.64,13.64,0,0,1,462,140.7a14.46,14.46,0,0,1-4.56-8.95h39.47Zm-39-7.92q2.07-4.91,4.51-6.85a14,14,0,0,1,9-3.1,13.42,13.42,0,0,1,13.13,10Z" style="fill: #67aad9"/>
      </g>
    </g>
    <g>
      <path d="M243.37,169.29l-4.14,13.12h-1.45l-3.64-11.18-3.65,11.18h-1.44l-4.15-13.12h1.39l3.49,11.41,3.68-11.41h1.36l3.67,11.41L242,169.29Z" style="fill: gray"/>
      <path d="M260.74,175.9c0,.21,0,.42,0,.63H248.83a5.35,5.35,0,0,0,5.56,4.91,5,5,0,0,0,4.54-2.39l1.15.68a6.46,6.46,0,0,1-5.72,3,6.85,6.85,0,0,1-.1-13.69C258.25,169,260.74,172.31,260.74,175.9Zm-11.91-.65h10.54a5.08,5.08,0,0,0-5.11-5A5.28,5.28,0,0,0,248.83,175.25Z" style="fill: gray"/>
      <path d="M278.87,170.58v8.52c0,2.31,1.23,2.36,3.91,2.13v1.18c-3.44.52-5.25-.32-5.25-3.31v-8.52h-2.88v-1.29h2.88V166l1.34-.39v3.67h3.91v1.29Z" style="fill: gray"/>
      <path d="M300.14,175.9c0,.21,0,.42,0,.63H288.24a5.34,5.34,0,0,0,5.56,4.91,5,5,0,0,0,4.53-2.39l1.16.68a6.47,6.47,0,0,1-5.72,3,6.85,6.85,0,1,1-.1-13.69C297.65,169,300.14,172.31,300.14,175.9Zm-11.9-.65h10.54a5.09,5.09,0,0,0-5.11-5A5.28,5.28,0,0,0,288.24,175.25Z" style="fill: gray"/>
      <path d="M318.72,169.29v13.12h-1.34v-3a6.3,6.3,0,0,1-5.64,3.25,6.85,6.85,0,0,1,0-13.69,6.31,6.31,0,0,1,5.64,3.25v-3Zm-1.34,6.56a5.55,5.55,0,1,0-5.53,5.59A5.5,5.5,0,0,0,317.38,175.85Z" style="fill: gray"/>
      <path d="M324.49,175.85a6.72,6.72,0,0,1,6.9-6.85,6.15,6.15,0,0,1,5.72,3.36L336,173a5,5,0,0,0-4.64-2.73,5.59,5.59,0,0,0,0,11.18,5.24,5.24,0,0,0,4.72-2.73l1.1.65a6.44,6.44,0,0,1-5.82,3.33A6.72,6.72,0,0,1,324.49,175.85Z" style="fill: gray"/>
      <path d="M353.82,174.25v8.16h-1.34v-8.16c0-2.42-1.39-4-3.85-4s-4.59,1.68-4.59,5.22v6.93h-1.31V164H344v7.74a4.93,4.93,0,0,1,4.69-2.78C351.85,169,353.82,171.07,353.82,174.25Z" style="fill: gray"/>
      <path d="M370,173.67h9.44v1.26H370Z" style="fill: gray"/>
      <path d="M407,169.29l-5.67,14.32c-1,2.52-2.94,4.23-5.19,4v-1.23c1.75.16,3.09-1.16,3.9-3.07l.29-.71-6-13.35h1.42L401,181l4.57-11.67Z" style="fill: gray"/>
      <path d="M410.6,175.85a6.89,6.89,0,1,1,6.89,6.84A6.79,6.79,0,0,1,410.6,175.85Zm12.43,0a5.55,5.55,0,1,0-5.54,5.59A5.5,5.5,0,0,0,423,175.85Z" style="fill: gray"/>
      <path d="M440.9,169.29v13.12h-1.32v-2.5a4.93,4.93,0,0,1-4.69,2.78c-3.12,0-5.09-2.07-5.09-5.24v-8.16h1.34v8.16c0,2.41,1.39,4,3.85,4s4.59-1.68,4.59-5.22v-6.93Z" style="fill: gray"/>
      <path d="M466,179c0,2.15-1.89,3.72-4.7,3.72-2.62,0-4.35-1.23-5-2.91l1.13-.65c.47,1.41,1.89,2.31,3.85,2.31s3.39-.82,3.39-2.47c0-3.57-8-1.52-8-6.24,0-2.08,1.78-3.73,4.46-3.73a4.65,4.65,0,0,1,4.46,2.63l-1.1.62a3.44,3.44,0,0,0-3.36-2c-1.71,0-3.15.89-3.15,2.47C458.08,176.24,466,174.17,466,179Z" style="fill: gray"/>
      <path d="M482.45,169.29v13.12h-1.31v-2.5a5,5,0,0,1-4.69,2.78c-3.13,0-5.09-2.07-5.09-5.24v-8.16h1.33v8.16c0,2.41,1.39,4,3.86,4s4.59-1.68,4.59-5.22v-6.93Z" style="fill: gray"/>
      <path d="M488.23,175.85a6.72,6.72,0,0,1,6.89-6.85,6.13,6.13,0,0,1,5.72,3.36l-1.07.63a5,5,0,0,0-4.65-2.73,5.59,5.59,0,0,0,0,11.18,5.27,5.27,0,0,0,4.73-2.73l1.1.65a6.46,6.46,0,0,1-5.83,3.33A6.71,6.71,0,0,1,488.23,175.85Z" style="fill: gray"/>
      <path d="M505.44,175.85a6.72,6.72,0,0,1,6.89-6.85,6.13,6.13,0,0,1,5.72,3.36L517,173a5,5,0,0,0-4.65-2.73,5.59,5.59,0,0,0,0,11.18,5.27,5.27,0,0,0,4.73-2.73l1.1.65a6.46,6.46,0,0,1-5.83,3.33A6.71,6.71,0,0,1,505.44,175.85Z" style="fill: gray"/>
      <path d="M535.92,175.9c0,.21,0,.42,0,.63H524a5.35,5.35,0,0,0,5.56,4.91,5,5,0,0,0,4.54-2.39l1.15.68a6.46,6.46,0,0,1-5.72,3,6.85,6.85,0,0,1-.1-13.69C533.43,169,535.92,172.31,535.92,175.9ZM524,175.25h10.54a5.08,5.08,0,0,0-5.11-5A5.28,5.28,0,0,0,524,175.25Z" style="fill: gray"/>
      <path d="M554,175.9c0,.21,0,.42,0,.63H542.09a5.34,5.34,0,0,0,5.56,4.91,5,5,0,0,0,4.54-2.39l1.15.68a6.47,6.47,0,0,1-5.72,3,6.85,6.85,0,1,1-.1-13.69C551.5,169,554,172.31,554,175.9Zm-11.91-.65h10.54a5.09,5.09,0,0,0-5.11-5A5.28,5.28,0,0,0,542.09,175.25Z" style="fill: gray"/>
      <path d="M572.57,164v18.37h-1.31v-3a6.22,6.22,0,0,1-5.64,3.33,6.85,6.85,0,0,1,0-13.69,6.22,6.22,0,0,1,5.64,3.33V164Zm-1.31,11.81a5.56,5.56,0,1,0-5.56,5.59A5.52,5.52,0,0,0,571.26,175.85Z" style="fill: gray"/>
    </g>
  </g>
</svg>
